<?xml version="1.0" encoding="iso-8859-1"?>
<!-- Generator: Adobe Illustrator 19.0.0, SVG Export Plug-In . SVG Version: 6.00 Build 0)  -->
<svg version="1.1" id="Layer_1" xmlns="http://www.w3.org/2000/svg" xmlns:xlink="http://www.w3.org/1999/xlink" x="0px" y="0px"
	 viewBox="0 0 512 512" style="enable-background:new 0 0 512 512;" xml:space="preserve">
<g>
	<g>
		<g>
			<path d="M392.533,135.568L119.467,408.635v48.282c0.017-0.017,0.017-0.034,0.034-0.051l273.033-273.024V135.568z"/>
			<polygon points="392.533,352.785 284.518,460.8 332.792,460.8 392.533,401.058 			"/>
			<polygon points="119.469,167.279 235.54,51.2 187.267,51.2 119.469,118.997 			"/>
			<polygon points="187.983,460.8 392.536,256.247 392.536,207.974 139.702,460.8 			"/>
			<polygon points="259.675,51.2 119.464,191.411 119.464,239.684 307.948,51.2 			"/>
			<polygon points="392.531,280.38 212.119,460.8 260.384,460.8 392.531,328.653 			"/>
			<polygon points="392.534,460.8 392.534,425.19 356.925,460.8 			"/>
			<path d="M418.133,0H93.867c-14.114,0-25.6,11.486-25.6,25.6v460.8c0,14.114,11.486,25.6,25.6,25.6h324.267
				c14.114,0,25.6-11.486,25.6-25.6V25.6C443.733,11.486,432.247,0,418.133,0z M409.6,469.333c0,4.719-3.814,8.533-8.533,8.533
				H110.933c-4.719,0-8.533-3.814-8.533-8.533V42.667c0-4.719,3.814-8.533,8.533-8.533h290.133c1.092,0,2.116,0.247,3.072,0.623
				h0.034c3.166,1.246,5.427,4.292,5.427,7.91V469.333z"/>
			<polygon points="119.468,51.2 119.468,94.865 163.133,51.2 			"/>
			<polygon points="119.467,312.09 380.356,51.2 332.083,51.2 119.467,263.817 			"/>
			<polygon points="119.467,384.498 392.533,111.432 392.533,63.159 119.467,336.225 			"/>
		</g>
	</g>
</g>
<g>
</g>
<g>
</g>
<g>
</g>
<g>
</g>
<g>
</g>
<g>
</g>
<g>
</g>
<g>
</g>
<g>
</g>
<g>
</g>
<g>
</g>
<g>
</g>
<g>
</g>
<g>
</g>
<g>
</g>
</svg>
