<?xml version="1.0" encoding="UTF-8" standalone="no"?>
<!-- Created with Inkscape (http://www.inkscape.org/) -->

<svg
   width="210mm"
   height="297mm"
   viewBox="0 0 210 297"
   version="1.1"
   id="svg5"
   xml:space="preserve"
   inkscape:version="1.2.2 (732a01da63, 2022-12-09)"
   sodipodi:docname="kabufuda.svg"
   xmlns:inkscape="http://www.inkscape.org/namespaces/inkscape"
   xmlns:sodipodi="http://sodipodi.sourceforge.net/DTD/sodipodi-0.dtd"
   xmlns="http://www.w3.org/2000/svg"
   xmlns:svg="http://www.w3.org/2000/svg"><sodipodi:namedview
     id="namedview7"
     pagecolor="#ffffff"
     bordercolor="#000000"
     borderopacity="0.25"
     inkscape:showpageshadow="2"
     inkscape:pageopacity="0.0"
     inkscape:pagecheckerboard="0"
     inkscape:deskcolor="#d1d1d1"
     inkscape:document-units="mm"
     showgrid="false"
     inkscape:zoom="0.5"
     inkscape:cx="43"
     inkscape:cy="618"
     inkscape:window-width="1920"
     inkscape:window-height="1009"
     inkscape:window-x="-8"
     inkscape:window-y="-8"
     inkscape:window-maximized="1"
     inkscape:current-layer="layer1" /><defs
     id="defs2" /><g
     inkscape:groupmode="layer"
     id="layer2"
     inkscape:label="template"
     style="display:inline" /><g
     inkscape:label="Layer 1"
     inkscape:groupmode="layer"
     id="layer1"><g
       id="g3124"
       transform="matrix(2.0184649,0,0,2.0184649,-111.6422,-148.46645)"><path
         style="display:inline;fill:#000000;fill-opacity:1;stroke-width:0.264583"
         d="m 146.17151,110.83195 c 2.27672,2.42685 1.45716,96.61309 0.89544,96.96057 -1.48918,4.91059 -3.77538,6.87062 -6.26961,7.76102 -21.83866,1.14073 -40.75639,0.89653 -60.994264,-0.0584 -3.511663,-0.64565 -5.458593,-3.76252 -6.538301,-7.88178 -1.644815,-41.79988 -1.647207,-52.74905 -0.08956,-81.50483 0.134426,-6.92775 1.188599,-13.77313 12.449638,-19.70446 5.380811,-6.18242 11.695207,-8.630494 14.867907,-23.645355 1.57501,-2.981748 2.42606,-5.860282 11.46442,-7.523523 4.24384,0.317712 9.4134,-0.832036 14.86791,9.314836 1.83519,15.495612 11.15487,19.219602 19.34642,26.281892 z"
         id="path331"
         sodipodi:nodetypes="cccccccccccc" /><path
         style="fill:#f50000;fill-opacity:1;stroke:none;stroke-width:0.264583;stroke-opacity:1"
         d="m 94.955523,120.45487 24.904407,0.27921 c 0.44222,-1.818 -5.53099,-9.35522 -11.97993,-8.99538 -7.882417,0.43983 -9.754753,2.99656 -12.924477,8.71617 z"
         id="path1095"
         sodipodi:nodetypes="ccsc" /><path
         style="fill:#f50000;fill-opacity:1;stroke:none;stroke-width:3;stroke-linecap:round;stroke-dasharray:none;stroke-opacity:1"
         d="m 100.27434,128.1392 c 0.17819,-0.18039 13.28295,-0.27059 13.87313,0.0399 1.29083,1.11879 0.71853,1.82047 -0.0468,2.47893 -0.26288,0.19968 -13.75328,0.0534 -13.86795,-0.1637 -0.890346,-0.29065 -1.609889,-1.29543 0.0416,-2.35513 z"
         id="path1888"
         sodipodi:nodetypes="ccccc" /><path
         style="fill:#f50000;fill-opacity:1;stroke:none;stroke-width:3;stroke-linecap:round;stroke-dasharray:none;stroke-opacity:1"
         d="m 93.368324,135.77129 c 0.492383,-0.31268 26.354076,-0.40341 26.735486,-0.0536 1.35826,1.40199 0.68558,2.15172 -0.0468,2.55334 -0.26288,0.19968 -26.545356,0.0725 -26.730306,-0.14457 -0.61382,-0.51421 -1.307639,-1.62997 0.04162,-2.35517 z"
         id="path1888-3"
         sodipodi:nodetypes="ccccc" /><path
         style="fill:#f50000;fill-opacity:1;stroke:none;stroke-width:3;stroke-linecap:round;stroke-dasharray:none;stroke-opacity:1"
         d="m 80.816335,145.29272 c 0.31268,0.49239 0.604055,52.64086 0.287318,53.1835 -1.35638,1.5635 -2.980935,0.77773 -3.395238,-0.0117 -0.316611,-0.42658 -0.6914,-52.77069 -0.234522,-53.26157 1.32318,-1.38631 2.259603,-1.09852 3.342442,0.0898 z"
         id="path1888-3-5"
         sodipodi:nodetypes="cccccc" /><path
         style="fill:#ffffff;fill-opacity:1;stroke:none;stroke-width:3;stroke-linecap:round;stroke-dasharray:none;stroke-opacity:1"
         d="m 94.957635,120.44836 c 0.05165,0.13546 9.832815,0.13524 9.822155,0.0234 0.17149,-3.25847 -0.34665,-6.64414 -1.60266,-8.0452 -1.85151,0.35423 -7.081103,2.62572 -8.219495,8.02181 z"
         id="path2363"
         sodipodi:nodetypes="ccccc" /></g></g></svg>
